<svg xmlns="http://www.w3.org/2000/svg" xmlns:xlink="http://www.w3.org/1999/xlink" width="500" zoomAndPan="magnify" viewBox="0 0 375 374.999991" height="500" preserveAspectRatio="xMidYMid meet" version="1.2"><defs><clipPath id="d7c3f78d24"><path d="M 28.007812 4.347656 L 346.757812 4.347656 L 346.757812 370.347656 L 28.007812 370.347656 Z M 28.007812 4.347656 "/></clipPath></defs><g id="ca321fc27f"><g clip-rule="nonzero" clip-path="url(#d7c3f78d24)"><path style=" stroke:none;fill-rule:evenodd;fill:#ffffff;fill-opacity:1;" d="M 146.425781 25.066406 C 124.621094 36.425781 106.785156 46.035156 106.789062 46.425781 C 106.796875 47.433594 159.113281 73.929688 160.972656 73.863281 C 161.816406 73.835938 167.941406 71.015625 174.585938 67.597656 L 186.667969 61.382812 L 199.863281 68.164062 L 213.054688 74.949219 L 234.664062 65.238281 C 267.222656 50.609375 270.601562 49.007812 270.074219 48.46875 C 269.371094 47.753906 257.691406 41.480469 226.007812 24.800781 C 210.695312 16.738281 195.835938 8.832031 192.984375 7.234375 C 190.128906 5.636719 187.40625 4.347656 186.929688 4.375 C 186.453125 4.398438 168.226562 13.710938 146.425781 25.066406 Z M 50.800781 74.585938 L 28.105469 86.308594 L 28.105469 137.757812 C 28.105469 166.054688 28.402344 189.207031 28.769531 189.207031 C 29.132812 189.207031 40.300781 184.367188 53.582031 178.449219 L 77.734375 167.695312 L 77.734375 113.460938 L 89.535156 119.890625 C 98.628906 124.84375 107.726562 129.78125 116.832031 134.710938 L 132.328125 143.101562 L 139.226562 139.984375 C 143.550781 138.027344 147.867188 136.046875 152.171875 134.050781 C 155.503906 132.5 163.671875 128.820312 170.328125 125.871094 C 176.988281 122.921875 183.148438 119.953125 184.023438 119.277344 C 185.183594 118.378906 171.03125 110.558594 131.671875 90.347656 C 102 75.109375 76.777344 62.695312 75.613281 62.753906 C 74.449219 62.8125 63.285156 68.136719 50.800781 74.585938 Z M 274.164062 77.875 C 258.707031 84.855469 246.046875 90.84375 246.035156 91.183594 C 246.019531 91.523438 254.445312 96.535156 264.757812 102.3125 C 275.066406 108.09375 283.503906 113.132812 283.503906 113.511719 C 283.503906 113.890625 274.378906 118.3125 263.230469 123.339844 C 252.078125 128.363281 223.890625 141.09375 200.589844 151.625 L 122.519531 186.917969 C 102.878906 195.792969 85.175781 203.796875 83.179688 204.703125 C 43.066406 222.859375 32.039062 227.898438 30.527344 228.765625 C 29.003906 229.636719 28.660156 234.695312 28.386719 260.085938 L 28.0625 290.371094 L 68.65625 311.050781 L 96.796875 298.351562 C 112.277344 291.367188 124.9375 285.285156 124.9375 284.835938 C 124.9375 284.390625 122.078125 282.527344 118.585938 280.695312 C 115.089844 278.863281 107.871094 274.804688 102.546875 271.675781 C 97.222656 268.546875 91.910156 265.679688 90.746094 265.296875 C 89.578125 264.917969 88.640625 264.253906 88.660156 263.820312 C 88.679688 263.386719 101.074219 257.503906 116.199219 250.738281 C 145.578125 237.605469 168.058594 227.480469 216.324219 205.652344 C 237.917969 195.890625 259.503906 186.140625 281.082031 176.394531 C 300.054688 167.832031 322.117188 157.828125 330.105469 154.167969 L 344.628906 147.515625 L 344.953125 116.882812 L 345.277344 86.257812 L 324.691406 75.691406 C 313.371094 69.878906 303.695312 65.140625 303.1875 65.15625 C 302.679688 65.175781 289.617188 70.898438 274.164062 77.875 Z M 339.117188 188.375 C 336.082031 189.855469 330.089844 192.628906 325.800781 194.539062 C 321.511719 196.445312 313.371094 200.121094 307.710938 202.703125 L 297.421875 207.394531 L 297.1875 234.285156 C 297.058594 249.074219 296.515625 261.109375 295.980469 261.03125 C 294.761719 260.847656 275.476562 250.960938 256.09375 240.574219 C 242.105469 233.078125 241.226562 232.777344 237.9375 234.40625 C 236.039062 235.347656 224.675781 240.445312 212.695312 245.730469 C 200.710938 251.015625 190.515625 255.6875 190.035156 256.109375 C 189.558594 256.53125 213.675781 269.605469 243.632812 285.160156 L 298.097656 313.441406 L 321.363281 301.40625 C 334.160156 294.789062 345.039062 288.75 345.542969 287.992188 C 346.667969 286.285156 346.574219 185.445312 345.445312 185.582031 C 344.996094 185.636719 342.148438 186.894531 339.117188 188.375 Z M 210.273438 306.734375 C 206.238281 308.46875 202.203125 310.203125 198.167969 311.945312 C 185.988281 317.214844 188.375 317.390625 173.886719 310.175781 C 164.234375 305.371094 160.074219 303.890625 158.265625 304.609375 C 156.914062 305.148438 145.253906 310.394531 132.359375 316.261719 C 119.464844 322.132812 108.464844 326.9375 107.917969 326.9375 C 102.507812 326.9375 111.503906 332.308594 146.210938 349.816406 L 186.914062 370.347656 L 204.042969 361.894531 C 213.460938 357.242188 232.460938 347.929688 246.261719 341.199219 C 260.0625 334.46875 271.183594 328.785156 270.976562 328.570312 C 270.765625 328.355469 259.203125 322.417969 245.277344 315.375 L 219.957031 302.566406 Z M 210.273438 306.734375 "/></g></g></svg>